<svg width="160" height="82" viewBox="0 0 160 82" fill="none" xmlns="http://www.w3.org/2000/svg">
<path d="M26.3991 37C26.1491 36.2348 25.8196 35.5492 25.4105 34.9432C25.009 34.3295 24.5279 33.8068 23.9673 33.375C23.4143 32.9432 22.7855 32.6136 22.081 32.3864C21.3764 32.1591 20.6037 32.0455 19.7628 32.0455C18.384 32.0455 17.1302 32.4015 16.0014 33.1136C14.8726 33.8258 13.9749 34.875 13.3082 36.2614C12.6416 37.6477 12.3082 39.3485 12.3082 41.3636C12.3082 43.3788 12.6454 45.0795 13.3196 46.4659C13.9938 47.8523 14.9067 48.9015 16.0582 49.6136C17.2098 50.3258 18.5052 50.6818 19.9446 50.6818C21.2779 50.6818 22.4522 50.3977 23.4673 49.8295C24.4901 49.2538 25.2855 48.4432 25.8537 47.3977C26.4295 46.3447 26.7173 45.1061 26.7173 43.6818L27.581 43.8636H20.581V41.3636H29.4446V43.8636C29.4446 45.7803 29.0355 47.447 28.2173 48.8636C27.4067 50.2803 26.2855 51.3788 24.8537 52.1591C23.4295 52.9318 21.7931 53.3182 19.9446 53.3182C17.884 53.3182 16.0734 52.8333 14.5128 51.8636C12.9598 50.8939 11.7476 49.5152 10.8764 47.7273C10.0128 45.9394 9.58097 43.8182 9.58097 41.3636C9.58097 39.5227 9.82718 37.8674 10.3196 36.3977C10.8196 34.9205 11.5241 33.6629 12.4332 32.625C13.3423 31.5871 14.4181 30.7917 15.6605 30.2386C16.9029 29.6856 18.2704 29.4091 19.7628 29.4091C20.9901 29.4091 22.134 29.5947 23.1946 29.9659C24.2628 30.3295 25.2135 30.8485 26.0469 31.5227C26.8878 32.1894 27.5885 32.9886 28.1491 33.9205C28.7098 34.8447 29.0961 35.8712 29.3082 37H26.3991ZM39.044 53.4091C37.938 53.4091 36.9342 53.2008 36.0327 52.7841C35.1312 52.3598 34.4152 51.75 33.8849 50.9545C33.3546 50.1515 33.0895 49.1818 33.0895 48.0455C33.0895 47.0455 33.2865 46.2348 33.6804 45.6136C34.0743 44.9848 34.6009 44.4924 35.2599 44.1364C35.919 43.7803 36.6463 43.5152 37.4418 43.3409C38.2448 43.1591 39.0516 43.0152 39.8622 42.9091C40.9228 42.7727 41.7827 42.6705 42.4418 42.6023C43.1084 42.5265 43.5933 42.4015 43.8963 42.2273C44.2069 42.053 44.3622 41.75 44.3622 41.3182V41.2273C44.3622 40.1061 44.0554 39.2348 43.4418 38.6136C42.8357 37.9924 41.9152 37.6818 40.6804 37.6818C39.4001 37.6818 38.3963 37.9621 37.669 38.5227C36.9418 39.0833 36.4304 39.6818 36.1349 40.3182L33.5895 39.4091C34.044 38.3485 34.6501 37.5227 35.4077 36.9318C36.1728 36.3333 37.0062 35.9167 37.9077 35.6818C38.8168 35.4394 39.7107 35.3182 40.5895 35.3182C41.1501 35.3182 41.794 35.3864 42.5213 35.5227C43.2562 35.6515 43.9645 35.9205 44.6463 36.3295C45.3357 36.7386 45.9077 37.3561 46.3622 38.1818C46.8168 39.0076 47.044 40.1136 47.044 41.5V53H44.3622V50.6364H44.2259C44.044 51.0152 43.741 51.4205 43.3168 51.8523C42.8925 52.2841 42.3281 52.6515 41.6236 52.9545C40.919 53.2576 40.0592 53.4091 39.044 53.4091ZM39.4531 51C40.5137 51 41.4077 50.7917 42.1349 50.375C42.8698 49.9583 43.4228 49.4205 43.794 48.7614C44.1728 48.1023 44.3622 47.4091 44.3622 46.6818V44.2273C44.2486 44.3636 43.9986 44.4886 43.6122 44.6023C43.2334 44.7083 42.794 44.803 42.294 44.8864C41.8016 44.9621 41.3205 45.0303 40.8509 45.0909C40.3887 45.1439 40.0137 45.1894 39.7259 45.2273C39.0289 45.3182 38.3774 45.4659 37.7713 45.6705C37.1728 45.8674 36.688 46.1667 36.3168 46.5682C35.9531 46.9621 35.7713 47.5 35.7713 48.1818C35.7713 49.1136 36.116 49.8182 36.8054 50.2955C37.5024 50.7652 38.3849 51 39.4531 51ZM51.9389 53V35.5455H54.5298V38.2727H54.7571C55.1207 37.3409 55.7079 36.6174 56.5185 36.1023C57.3291 35.5795 58.3026 35.3182 59.4389 35.3182C60.5904 35.3182 61.5488 35.5795 62.3139 36.1023C63.0866 36.6174 63.6889 37.3409 64.1207 38.2727H64.3026C64.7495 37.3712 65.42 36.6553 66.3139 36.125C67.2079 35.5871 68.2798 35.3182 69.5298 35.3182C71.0904 35.3182 72.367 35.8068 73.3594 36.7841C74.3518 37.7538 74.848 39.2652 74.848 41.3182V53H72.1662V41.3182C72.1662 40.0303 71.8139 39.1098 71.1094 38.5568C70.4048 38.0038 69.5753 37.7273 68.6207 37.7273C67.3935 37.7273 66.4427 38.0985 65.7685 38.8409C65.0942 39.5758 64.7571 40.5076 64.7571 41.6364V53H62.0298V41.0455C62.0298 40.053 61.7079 39.2538 61.0639 38.6477C60.42 38.0341 59.5904 37.7273 58.5753 37.7273C57.8783 37.7273 57.2268 37.9129 56.6207 38.2841C56.0223 38.6553 55.5374 39.1705 55.1662 39.8295C54.8026 40.4811 54.6207 41.2348 54.6207 42.0909V53H51.9389ZM87.0696 53.3636C85.3878 53.3636 83.937 52.9924 82.7173 52.25C81.5052 51.5 80.5696 50.4545 79.9105 49.1136C79.259 47.7652 78.9332 46.197 78.9332 44.4091C78.9332 42.6212 79.259 41.0455 79.9105 39.6818C80.5696 38.3106 81.4863 37.2424 82.6605 36.4773C83.8423 35.7045 85.2211 35.3182 86.7969 35.3182C87.706 35.3182 88.6037 35.4697 89.4901 35.7727C90.3764 36.0758 91.1832 36.5682 91.9105 37.25C92.6378 37.9242 93.2173 38.8182 93.6491 39.9318C94.081 41.0455 94.2969 42.4167 94.2969 44.0455V45.1818H80.8423V42.8636H91.5696C91.5696 41.8788 91.3726 41 90.9787 40.2273C90.5923 39.4545 90.0393 38.8447 89.3196 38.3977C88.6075 37.9508 87.7666 37.7273 86.7969 37.7273C85.7287 37.7273 84.8045 37.9924 84.0241 38.5227C83.2514 39.0455 82.6567 39.7273 82.2401 40.5682C81.8234 41.4091 81.6151 42.3106 81.6151 43.2727V44.8182C81.6151 46.1364 81.8423 47.2538 82.2969 48.1705C82.759 49.0795 83.3991 49.7727 84.2173 50.25C85.0355 50.7197 85.9863 50.9545 87.0696 50.9545C87.7741 50.9545 88.4105 50.8561 88.9787 50.6591C89.5545 50.4545 90.0507 50.1515 90.4673 49.75C90.884 49.3409 91.206 48.8333 91.4332 48.2273L94.0241 48.9545C93.7514 49.8333 93.2931 50.6061 92.6491 51.2727C92.0052 51.9318 91.2098 52.447 90.2628 52.8182C89.3158 53.1818 88.2514 53.3636 87.0696 53.3636Z" fill="#26AA55"/>
<path d="M97.9446 53V29.7273H113.354V33.7841H102.865V39.3295H112.331V43.3864H102.865V53H97.9446ZM121.413 29.7273V53H116.572V29.7273H121.413ZM125.291 53V35.5455H130.132V53H125.291ZM127.723 33.2955C127.003 33.2955 126.386 33.0568 125.871 32.5795C125.363 32.0947 125.109 31.5152 125.109 30.8409C125.109 30.1742 125.363 29.6023 125.871 29.125C126.386 28.6402 127.003 28.3977 127.723 28.3977C128.443 28.3977 129.056 28.6402 129.564 29.125C130.079 29.6023 130.337 30.1742 130.337 30.8409C130.337 31.5152 130.079 32.0947 129.564 32.5795C129.056 33.0568 128.443 33.2955 127.723 33.2955ZM134.01 59.5455V35.5455H138.783V38.4773H138.999C139.211 38.0076 139.518 37.5303 139.919 37.0455C140.328 36.553 140.858 36.1439 141.51 35.8182C142.169 35.4848 142.987 35.3182 143.964 35.3182C145.237 35.3182 146.411 35.6515 147.487 36.3182C148.563 36.9773 149.423 37.9735 150.067 39.3068C150.711 40.6326 151.033 42.2955 151.033 44.2955C151.033 46.2424 150.718 47.8864 150.089 49.2273C149.468 50.5606 148.62 51.572 147.544 52.2614C146.476 52.9432 145.279 53.2841 143.953 53.2841C143.014 53.2841 142.214 53.1288 141.555 52.8182C140.904 52.5076 140.37 52.1174 139.953 51.6477C139.536 51.1705 139.218 50.6894 138.999 50.2045H138.851V59.5455H134.01ZM138.749 44.2727C138.749 45.3106 138.893 46.2159 139.18 46.9886C139.468 47.7614 139.885 48.3636 140.43 48.7955C140.976 49.2197 141.639 49.4318 142.419 49.4318C143.207 49.4318 143.874 49.2159 144.419 48.7841C144.964 48.3447 145.377 47.7386 145.658 46.9659C145.946 46.1856 146.089 45.2879 146.089 44.2727C146.089 43.2652 145.949 42.3788 145.669 41.6136C145.389 40.8485 144.976 40.25 144.43 39.8182C143.885 39.3864 143.214 39.1705 142.419 39.1705C141.631 39.1705 140.964 39.3788 140.419 39.7955C139.881 40.2121 139.468 40.803 139.18 41.5682C138.893 42.3333 138.749 43.2348 138.749 44.2727Z" fill="#0273BA"/>
<path d="M44.3076 59.8599C44.3076 59.8599 69.7436 68.47 89.8461 68.47C109.949 68.47 131.692 59.86 131.692 59.86" stroke="#26AA55"/>
<path d="M112.817 26.5794C112.817 26.5794 87.3071 18.1915 67.2053 18.3668C47.1035 18.5421 25.436 27.3414 25.436 27.3414" stroke="#0273BA"/>
</svg>
